<svg xmlns="http://www.w3.org/2000/svg" x="0px" y="0px" width="100" height="100" viewBox="0 0 100 100">
<path d="M 30 18 C 22.82 18 17 23.82 17 31 L 17 70 C 17 77.18 22.82 83 30 83 L 69 83 C 76.18 83 82 77.18 82 70 L 82 31 C 82 23.82 76.18 18 69 18 L 30 18 z M 30 20 L 69 20 C 75.075 20 80 24.925 80 31 L 80 70 C 80 76.075 75.075 81 69 81 L 30 81 C 23.925 81 19 76.075 19 70 L 19 31 C 19 24.925 23.925 20 30 20 z M 32.837891 23 C 26.852891 23 22 27.852891 22 33.837891 L 22 67.162109 C 22 73.147109 26.852891 78 32.837891 78 L 66.162109 78 C 72.148109 78 77 73.148109 77 67.162109 L 77 48.5 C 77 48.224 76.776 48 76.5 48 C 76.224 48 76 48.224 76 48.5 L 76 67.162109 C 76 72.595109 71.595109 77 66.162109 77 L 32.837891 77 C 27.404891 77 23 72.595109 23 67.162109 L 23 33.837891 C 23 28.404891 27.404891 24 32.837891 24 L 66.5 24 C 66.776 24 67 23.776 67 23.5 C 67 23.224 66.776 23 66.5 23 L 32.837891 23 z M 50.861328 33.962891 C 44.511328 33.962891 38.779719 37.022656 36.511719 41.597656 C 31.272719 43.526656 28.254359 48.895219 29.318359 54.449219 C 30.150359 58.787219 33.610641 62.330625 37.931641 63.265625 C 40.668641 63.857625 43.453516 63.458578 45.853516 62.142578 L 46.439453 67.951172 C 46.492453 68.478172 46.857141 68.906969 47.369141 69.042969 C 47.478141 69.071969 47.588266 69.085938 47.697266 69.085938 C 48.096266 69.085937 48.47575 68.894688 48.71875 68.554688 L 53.90625 61.261719 C 53.95425 61.265719 54.003734 61.267578 54.052734 61.267578 C 57.281734 61.267578 60.260281 59.429688 61.738281 56.554688 C 61.894281 56.573688 62.049937 56.591797 62.210938 56.591797 C 66.984938 56.591797 70.869141 52.707594 70.869141 47.933594 C 70.869141 43.756594 67.911594 40.218172 63.808594 39.451172 C 60.962594 36.010172 56.139328 33.962891 50.861328 33.962891 z M 50.857422 34.964844 C 55.910422 34.964844 60.504484 36.931562 63.146484 40.226562 L 63.265625 40.375 L 63.455078 40.40625 C 67.171078 41.01825 69.867188 44.183594 69.867188 47.933594 C 69.867188 52.156594 66.431984 55.591797 62.208984 55.591797 C 62.060984 55.591797 61.918391 55.572734 61.775391 55.552734 C 61.680391 55.539734 61.585234 55.526578 61.490234 55.517578 L 61.138672 55.484375 L 60.988281 55.806641 C 59.737281 58.517641 57.013781 60.269531 54.050781 60.269531 C 54.001781 60.269531 53.95325 60.259906 53.90625 60.253906 C 53.83625 60.244906 53.765359 60.235422 53.693359 60.232422 L 53.421875 60.21875 L 47.902344 67.976562 C 47.810344 68.107562 47.677 68.091172 47.625 68.076172 C 47.573 68.062172 47.449594 68.012563 47.433594 67.851562 L 46.685547 60.451172 L 45.998047 60.894531 C 43.676047 62.388531 40.885625 62.882063 38.140625 62.289062 C 34.206625 61.438063 31.055828 58.213672 30.298828 54.263672 C 29.314828 49.132672 32.146203 44.173656 37.033203 42.472656 L 37.232422 42.404297 L 37.322266 42.214844 C 39.362266 37.878844 44.801422 34.964844 50.857422 34.964844 z M 76.5 36.578125 C 76.224 36.578125 76 36.802125 76 37.078125 L 76 39.078125 C 76 39.354125 76.224 39.578125 76.5 39.578125 C 76.776 39.578125 77 39.355125 77 39.078125 L 77 37.078125 C 77 36.802125 76.776 36.578125 76.5 36.578125 z M 76.5 40.578125 C 76.224 40.578125 76 40.802125 76 41.078125 L 76 45.078125 C 76 45.354125 76.224 45.578125 76.5 45.578125 C 76.776 45.578125 77 45.355125 77 45.078125 L 77 41.078125 C 77 40.802125 76.776 40.578125 76.5 40.578125 z"></path>
</svg>